<svg width="22" height="19" viewBox="0 0 22 19" fill="none" xmlns="http://www.w3.org/2000/svg">
<path d="M0 2.375C0 1.06875 0.975957 0 2.16879 0H18.4347C18.7223 0 18.9982 0.125111 19.2015 0.347811C19.4049 0.57051 19.5191 0.872555 19.5191 1.1875V2.375H2.16879V3.5625H20.6035C20.8911 3.5625 21.167 3.68761 21.3703 3.91031C21.5737 4.13301 21.6879 4.43506 21.6879 4.75V16.625C21.6879 17.2549 21.4594 17.859 21.0527 18.3044C20.646 18.7498 20.0943 19 19.5191 19H2.16879C1.59359 19 1.04195 18.7498 0.635225 18.3044C0.228497 17.859 0 17.2549 0 16.625V2.375ZM17.8925 13.0625C18.3239 13.0625 18.7377 12.8748 19.0427 12.5408C19.3478 12.2067 19.5191 11.7537 19.5191 11.2812C19.5191 10.8088 19.3478 10.3558 19.0427 10.0217C18.7377 9.68767 18.3239 9.5 17.8925 9.5C17.4611 9.5 17.0474 9.68767 16.7424 10.0217C16.4373 10.3558 16.2659 10.8088 16.2659 11.2812C16.2659 11.7537 16.4373 12.2067 16.7424 12.5408C17.0474 12.8748 17.4611 13.0625 17.8925 13.0625Z" fill="#CACACA"/>
</svg>
